# xmcd CD database file
#
# Track frame offsets:
#	150
#	28957
#	55529
#	75989
#	99836
#	135826
#	155977
#	176110
#	206685
#	223849
#
# Disc length: 3271 seconds
#
# Revision: 0
# Processed by: cddbd v1.5.2PL0 Copyright (c) Steve Scherf et al.
# Submitted via: CDex 1.51
#
DISCID=830cc50a
DTITLE=Trent Austin - Two-Toned
DYEAR=2005
DGENRE=Jazz
TTITLE0=Lullaby of the Leaves
TTITLE1=I'm Old Fashioned
TTITLE2=8pak
TTITLE3=Two-Toned
TTITLE4=What Is ThisThing Called Love?
TTITLE5=I'm Confessin' That I Love You
TTITLE6=Stupendous
TTITLE7=Three Wheeler
TTITLE8=Jones
TTITLE9=Armando's Rhumba
EXTD=YEAR: 2005
EXTT0=
EXTT1=
EXTT2=
EXTT3=
EXTT4=
EXTT5=
EXTT6=
EXTT7=
EXTT8=
EXTT9=
PLAYORDER=
